<?xml version="1.0" encoding="UTF-8" standalone="no"?>
<!-- Created with Inkscape (http://www.inkscape.org/) -->

<svg
   xmlns:dc="http://purl.org/dc/elements/1.1/"
   xmlns:cc="http://creativecommons.org/ns#"
   xmlns:rdf="http://www.w3.org/1999/02/22-rdf-syntax-ns#"
   xmlns:svg="http://www.w3.org/2000/svg"
   xmlns="http://www.w3.org/2000/svg"
   xmlns:sodipodi="http://sodipodi.sourceforge.net/DTD/sodipodi-0.dtd"
   xmlns:inkscape="http://www.inkscape.org/namespaces/inkscape"
   width="512"
   height="512"
   viewBox="0 0 512 512"
   version="1.1"
   id="svg8"
   inkscape:version="0.92.1 r15371"
   sodipodi:docname="PXE.svg">
  <sodipodi:namedview
     id="base"
     pagecolor="#ffffff"
     bordercolor="#666666"
     borderopacity="1.0"
     inkscape:pageopacity="0.0"
     inkscape:pageshadow="2"
     inkscape:zoom="0.35355339"
     inkscape:cx="-67.884195"
     inkscape:cy="245.7883"
     inkscape:document-units="px"
     inkscape:current-layer="layer2"
     showgrid="false"
     units="px"
     viewbox-width="512"
     inkscape:measure-start="245.013,418.961"
     inkscape:measure-end="207.889,422"
     inkscape:window-width="1366"
     inkscape:window-height="705"
     inkscape:window-x="-8"
     inkscape:window-y="-8"
     inkscape:window-maximized="1"
     showguides="false" />
  <defs
     id="defs2">
    <inkscape:path-effect
       only_selected="false"
       apply_with_weight="true"
       apply_no_weight="true"
       helper_size="0"
       steps="2"
       weight="33.333333"
       is_visible="true"
       id="path-effect4531"
       effect="bspline" />
    <inkscape:perspective
       id="perspective4493"
       inkscape:persp3d-origin="331.56378 : -5.2878581 : 1"
       inkscape:vp_z="300.00874 : 92.005937 : 0"
       inkscape:vp_y="0 : 1078.1946 : 0"
       inkscape:vp_x="-300.00874 : 92.005934 : 0"
       sodipodi:type="inkscape:persp3d" />
    <inkscape:path-effect
       only_selected="false"
       apply_with_weight="true"
       apply_no_weight="true"
       helper_size="0"
       steps="2"
       weight="33.333333"
       is_visible="true"
       id="path-effect4560"
       effect="bspline" />
    <inkscape:path-effect
       only_selected="false"
       apply_with_weight="true"
       apply_no_weight="true"
       helper_size="0"
       steps="2"
       weight="33.333333"
       is_visible="true"
       id="path-effect4531-1"
       effect="bspline" />
    <inkscape:path-effect
       only_selected="false"
       apply_with_weight="true"
       apply_no_weight="true"
       helper_size="0"
       steps="2"
       weight="33.333333"
       is_visible="true"
       id="path-effect4531-7"
       effect="bspline" />
  </defs>
  <metadata
     id="metadata5">
    <rdf:RDF>
      <cc:Work
         rdf:about="">
        <dc:format>image/svg+xml</dc:format>
        <dc:type
           rdf:resource="http://purl.org/dc/dcmitype/StillImage" />
        <dc:title></dc:title>
      </cc:Work>
    </rdf:RDF>
  </metadata>
  <g
     style="display:inline"
     transform="translate(0,-161.53192)"
     id="layer1"
     inkscape:groupmode="layer"
     inkscape:label="Background">
    <circle
       r="256"
       cy="417.53192"
       cx="256"
       id="path4489"
       style="fill:#c00808;fill-opacity:1;stroke:none;stroke-width:7.05644608;stroke-linecap:round;stroke-miterlimit:4;stroke-dasharray:none" />
  </g>
  <g
     style="display:inline"
     inkscape:label="PXE"
     id="layer2"
     inkscape:groupmode="layer">
    <path
       d="M 128,87.001476 V 392.49204 l 75.00218,-23.00148 V 63.999991 Z"
       style="fill:#353564;fill-opacity:1;fill-rule:evenodd;stroke:none;stroke-width:4.49630213;stroke-linecap:round;stroke-linejoin:round;stroke-miterlimit:4;stroke-dasharray:none"
       id="path4509"
       inkscape:connector-curvature="0" />
    <path
       d="M 203.00218,63.999991 384,119.50795 V 424.99852 L 203.00218,369.49056 Z"
       style="fill:#e9e9ff;fill-opacity:1;fill-rule:evenodd;stroke:none;stroke-width:4.49630213;stroke-linecap:round;stroke-linejoin:round;stroke-miterlimit:4;stroke-dasharray:none"
       id="path4511"
       inkscape:connector-curvature="0" />
    <path
       d="M 128,392.49204 308.99781,448 384,424.99852 203.00218,369.49056 Z"
       style="fill:#afafde;fill-opacity:1;fill-rule:evenodd;stroke:none;stroke-width:4.49630213;stroke-linecap:round;stroke-linejoin:round;stroke-miterlimit:4;stroke-dasharray:none"
       id="path4513"
       inkscape:connector-curvature="0" />
    <path
       d="M 128,87.001476 308.99781,142.50944 384,119.50795 203.00218,63.999991 Z"
       style="fill:#a9a9a9;fill-opacity:1;fill-rule:evenodd;stroke:#000000;stroke-width:8;stroke-linecap:round;stroke-linejoin:round;stroke-miterlimit:4;stroke-dasharray:none;stroke-opacity:1"
       id="path4515"
       inkscape:connector-curvature="0" />
    <path
       d="M 308.99781,142.50944 V 448 L 384,424.99852 V 119.50795 Z"
       style="fill:#a9a9a9;fill-opacity:1;fill-rule:evenodd;stroke:#000000;stroke-width:8;stroke-linecap:round;stroke-linejoin:round;stroke-miterlimit:4;stroke-dasharray:none;stroke-opacity:1"
       id="path4517"
       inkscape:connector-curvature="0" />
    <path
       d="M 128,87.001476 308.99781,142.50944 V 448 L 128,392.49204 Z"
       style="fill:#a9a9a9;fill-opacity:1;fill-rule:evenodd;stroke:#000000;stroke-width:8;stroke-linecap:round;stroke-linejoin:round;stroke-miterlimit:4;stroke-dasharray:none;stroke-opacity:1"
       id="path4519"
       inkscape:connector-curvature="0" />
    <path
       inkscape:path-effect="#path-effect4531"
       inkscape:original-d="m 311.12698,188.14509 c 24.52189,-6.57135 49.04278,-13.1417 73.56267,-19.71105"
       inkscape:connector-curvature="0"
       id="path4529"
       d="m 311.12698,188.14509 c 24.52207,-6.57067 49.04296,-13.14102 73.56267,-19.71105"
       style="fill:none;stroke:#000000;stroke-width:8;stroke-linecap:butt;stroke-linejoin:miter;stroke-miterlimit:4;stroke-dasharray:none;stroke-opacity:1" />
    <path
       inkscape:path-effect="#path-effect4531-1"
       inkscape:original-d="m 308.8797,229.11332 c 24.52189,-6.57135 49.04278,-13.1417 73.56267,-19.71105"
       inkscape:connector-curvature="0"
       id="path4529-7"
       d="m 308.8797,229.11332 c 24.52207,-6.57067 49.04296,-13.14102 73.56267,-19.71105"
       style="display:inline;fill:none;stroke:#000000;stroke-width:8;stroke-linecap:butt;stroke-linejoin:miter;stroke-miterlimit:4;stroke-dasharray:none;stroke-opacity:1" />
    <path
       inkscape:path-effect="#path-effect4531-7"
       inkscape:original-d="m 309.46549,270.32652 c 24.52189,-6.57135 49.04278,-13.1417 73.56267,-19.71105"
       inkscape:connector-curvature="0"
       id="path4529-3"
       d="m 309.46549,270.32652 c 24.52207,-6.57067 49.04296,-13.14102 73.56267,-19.71105"
       style="display:inline;fill:none;stroke:#000000;stroke-width:8;stroke-linecap:butt;stroke-linejoin:miter;stroke-miterlimit:4;stroke-dasharray:none;stroke-opacity:1" />
    <g
       id="text4561"
       style="font-style:normal;font-variant:normal;font-weight:normal;font-stretch:normal;font-size:85.33333588px;line-height:1.25;font-family:sans-serif;-inkscape-font-specification:sans-serif;letter-spacing:0px;word-spacing:0px;fill:#000000;fill-opacity:1;stroke:none"
       aria-label="DHCP TFTP"
       transform="matrix(0.86684772,0,0,0.86684772,26.527197,37.922783)">
      <g
         id="text5353"
         style="font-style:normal;font-variant:normal;font-weight:normal;font-stretch:normal;font-size:85.33333588px;line-height:1.25;font-family:sans-serif;-inkscape-font-specification:sans-serif;text-align:center;letter-spacing:0px;word-spacing:0px;text-anchor:middle;fill:#000000;fill-opacity:1;stroke:none"
         transform="rotate(-90)"
         aria-label="DHCP TFTP">
        <path
           inkscape:connector-curvature="0"
           id="path5374"
           d="m -179.887,144.99647 c 0,0 -43.49578,0 -43.49578,0 0,0 -1.79688,7.06304 -1.79688,7.06304 -1.5154,5.95663 -0.877,10.30953 1.91312,13.06217 2.78394,2.77062 7.93921,4.15545 15.46678,4.15545 7.47772,0 13.30523,-1.38483 17.48396,-4.15545 4.20063,-2.75264 7.06954,-7.10554 8.60643,-13.06217 0,0 1.82237,-7.06304 1.82237,-7.06304 m 7.73236,-5.85355 c 0,0 -3.10746,12.0197 -3.10746,12.0197 -2.16282,8.36584 -6.0046,14.49789 -11.5249,18.40297 -5.4918,3.90256 -13.01966,5.85288 -22.58626,5.85288 -9.61642,0 -16.17981,-1.95993 -19.6919,-5.88172 -3.51437,-3.92435 -4.2164,-10.04682 -2.10218,-18.37413 0,0 3.05168,-12.0197 3.05168,-12.0197 0,0 55.96102,0 55.96102,0" />
        <path
           inkscape:connector-curvature="0"
           id="path5376"
           d="m -183.92267,184.6619 c 0,0 -1.50192,5.80945 -1.50192,5.80945 0,0 -22.84151,0 -22.84151,0 0,0 -5.4052,21.06238 -5.4052,21.06238 0,0 22.80145,0 22.80145,0 0,0 -1.49521,5.7835 -1.49521,5.7835 0,0 -55.59826,0 -55.59826,0 0,0 1.46837,-5.7835 1.46837,-5.7835 0,0 26.48992,0 26.48992,0 0,0 5.39407,-21.06238 5.39407,-21.06238 0,0 -26.53647,0 -26.53647,0 0,0 1.47496,-5.80945 1.47496,-5.80945 0,0 55.7498,0 55.7498,0" />
        <path
           inkscape:connector-curvature="0"
           id="path5378"
           d="m -207.83707,260.65829 c 0,0 -7.90327,0 -7.90327,0 2.84791,-1.93224 5.13709,-3.99778 6.86732,-6.19675 1.72597,-2.18081 2.90748,-4.50473 3.54425,-6.97192 1.25473,-4.86144 0.27073,-8.58615 -2.95381,-11.17201 -3.20115,-2.58698 -8.47188,-3.88089 -15.81117,-3.88089 -7.31448,0 -13.24823,1.29391 -17.79977,3.88089 -4.52478,2.58586 -7.40499,6.31057 -8.64133,11.17201 -0.62744,2.46719 -0.63674,4.79111 -0.0282,6.97192 0.60345,2.19897 1.83422,4.26451 3.69202,6.19675 0,0 -7.82907,0 -7.82907,0 -1.27078,-2.00803 -2.0653,-4.13993 -2.38332,-6.39583 -0.32295,-2.23779 -0.16665,-4.60925 0.46919,-7.11453 1.63417,-6.43882 5.48808,-11.515 11.56324,-15.22504 6.10374,-3.71235 13.60997,-5.56939 22.51585,-5.56939 8.93068,0 15.48534,1.85704 19.66203,5.56939 4.19888,3.71004 5.46409,8.78622 3.79892,15.22504 -0.65772,2.54323 -1.72149,4.93364 -3.1911,7.17141 -1.44922,2.25588 -3.30651,4.36882 -5.57173,6.33895 0,0 0,0 0,0" />
        <path
           inkscape:connector-curvature="0"
           id="path5380"
           d="m -213.50723,275.30024 c 0,0 -20.79014,0 -20.79014,0 0,0 -1.84368,7.19428 -1.84368,7.19428 -0.68175,2.66026 -0.30769,4.71595 1.12168,6.16771 1.42902,1.4514 3.80889,2.17697 7.13986,2.17697 3.30629,0 6.04697,-0.72557 8.22242,-2.17697 2.17598,-1.45176 3.60725,-3.50745 4.29363,-6.16771 0,0 1.85623,-7.19428 1.85623,-7.19428 m 7.63258,-5.72765 c 0,0 -3.34071,12.92193 -3.34071,12.92193 -1.22409,4.7348 -3.55402,8.30699 -6.98948,10.71866 -3.41426,2.42951 -7.82129,3.6439 -13.22214,3.6439 -5.45016,0 -9.25732,-1.21439 -11.42212,-3.6439 -2.17051,-2.41167 -2.65099,-5.98386 -1.44004,-10.71866 0,0 1.83997,-7.19428 1.83997,-7.19428 0,0 -22.23544,0 -22.23544,0 0,0 1.45419,-5.72765 1.45419,-5.72765 0,0 55.35577,0 55.35577,0" />
        <path
           inkscape:connector-curvature="0"
           id="path5382"
           d="m -269.87352,146.18387 c 0,0 -9.13679,36.46354 -9.13679,36.46354 0,0 -6.349,0 -6.349,0 0,0 3.81932,-15.2745 3.81932,-15.2745 0,0 -49.47296,0 -49.47296,0 0,0 1.44134,-5.86072 1.44134,-5.86072 0,0 49.49706,0 49.49706,0 0,0 3.83277,-15.32832 3.83277,-15.32832 0,0 6.36826,0 6.36826,0" />
        <path
           inkscape:connector-curvature="0"
           id="path5384"
           d="m -280.42326,188.28628 c 0,0 -6.16968,24.62225 -6.16968,24.62225 0,0 -6.33301,0 -6.33301,0 0,0 4.70492,-18.81631 4.70492,-18.81631 0,0 -16.41705,0 -16.41705,0 0,0 -4.22333,16.98317 -4.22333,16.98317 0,0 -6.33397,0 -6.33397,0 0,0 4.21435,-16.98317 4.21435,-16.98317 0,0 -26.60308,0 -26.60308,0 0,0 1.42787,-5.80594 1.42787,-5.80594 0,0 55.73298,0 55.73298,0" />
        <path
           inkscape:connector-curvature="0"
           id="path5386"
           d="m -287.15974,215.17054 c 0,0 -9.03265,36.04793 -9.03265,36.04793 0,0 -6.31277,0 -6.31277,0 0,0 3.77582,-15.10056 3.77582,-15.10056 0,0 -49.19027,0 -49.19027,0 0,0 1.42491,-5.79391 1.42491,-5.79391 0,0 49.2141,0 49.2141,0 0,0 3.78904,-15.15346 3.78904,-15.15346 0,0 6.33182,0 6.33182,0" />
        <path
           inkscape:connector-curvature="0"
           id="path5388"
           d="m -305.18593,262.5331 c 0,0 -20.8124,0 -20.8124,0 0,0 -1.79027,7.20969 -1.79027,7.20969 -0.66199,2.66595 -0.27171,4.72604 1.17037,6.18091 1.44172,1.45451 3.82971,2.18163 7.16425,2.18163 3.30983,0 6.04785,-0.72712 8.21446,-2.18163 2.16714,-1.45487 3.58411,-3.51496 4.25075,-6.18091 0,0 1.80284,-7.20969 1.80284,-7.20969 m 7.59666,-5.73992 c 0,0 -3.24483,12.94961 -3.24483,12.94961 -1.18895,4.74494 -3.49388,8.32477 -6.91445,10.7416 -3.39921,2.43471 -7.80161,3.6517 -13.20822,3.6517 -5.45599,0 -9.27656,-1.21699 -11.46239,-3.6517 -2.1914,-2.41683 -2.6999,-5.99666 -1.52411,-10.7416 0,0 1.78655,-7.20969 1.78655,-7.20969 0,0 -22.25926,0 -22.25926,0 0,0 1.41164,-5.73992 1.41164,-5.73992 0,0 55.41507,0 55.41507,0" />
      </g>
    </g>
  </g>
</svg>
